<mxfile host="65bd71144e">
    <diagram id="pVDxyBRwNWs-ct__Iq4I" name="PÃ¡gina-1">
        <mxGraphModel dx="413" dy="1322" grid="1" gridSize="10" guides="1" tooltips="1" connect="1" arrows="1" fold="1" page="1" pageScale="1" pageWidth="827" pageHeight="1169" math="0" shadow="0">
            <root>
                <mxCell id="0"/>
                <mxCell id="1" parent="0"/>
                <mxCell id="16" value="" style="edgeStyle=none;shape=link;html=1;" parent="1" source="14" edge="1">
                    <mxGeometry relative="1" as="geometry">
                        <mxPoint x="111.96721311475414" y="50" as="targetPoint"/>
                    </mxGeometry>
                </mxCell>
                <mxCell id="14" value="" style="rounded=0;whiteSpace=wrap;html=1;" parent="1" vertex="1">
                    <mxGeometry x="50" y="-80" width="500" height="800" as="geometry"/>
                </mxCell>
                <mxCell id="43" style="edgeStyle=none;shape=link;html=1;exitX=0;exitY=0.5;exitDx=0;exitDy=0;width=1;entryX=0;entryY=0.5;entryDx=0;entryDy=0;" parent="1" edge="1">
                    <mxGeometry relative="1" as="geometry">
                        <mxPoint x="120" y="666" as="sourcePoint"/>
                        <mxPoint x="60" y="-29" as="targetPoint"/>
                        <Array as="points">
                            <mxPoint x="60" y="666"/>
                        </Array>
                    </mxGeometry>
                </mxCell>
                <mxCell id="24" value="package.json" style="rounded=0;whiteSpace=wrap;html=1;" parent="1" vertex="1">
                    <mxGeometry x="120" y="650" width="90" height="30" as="geometry"/>
                </mxCell>
                <mxCell id="51" style="edgeStyle=none;shape=link;html=1;width=-1;" parent="1" source="28" edge="1">
                    <mxGeometry relative="1" as="geometry">
                        <mxPoint x="60" y="495" as="targetPoint"/>
                    </mxGeometry>
                </mxCell>
                <mxCell id="28" value="db.js" style="rounded=0;whiteSpace=wrap;html=1;" parent="1" vertex="1">
                    <mxGeometry x="290" y="480" width="80" height="30" as="geometry"/>
                </mxCell>
                <mxCell id="32" value="myPageNode" style="text;strokeColor=none;fillColor=none;html=1;fontSize=24;fontStyle=1;verticalAlign=middle;align=center;" parent="1" vertex="1">
                    <mxGeometry x="60" y="-90" width="170" height="40" as="geometry"/>
                </mxCell>
                <mxCell id="47" style="edgeStyle=none;shape=link;html=1;width=1;" parent="1" source="45" edge="1">
                    <mxGeometry relative="1" as="geometry">
                        <mxPoint x="60" y="550" as="targetPoint"/>
                    </mxGeometry>
                </mxCell>
                <mxCell id="45" value="app.js" style="rounded=0;whiteSpace=wrap;html=1;" parent="1" vertex="1">
                    <mxGeometry x="95" y="540" width="60" height="20" as="geometry"/>
                </mxCell>
                <mxCell id="49" style="edgeStyle=none;shape=link;html=1;entryX=1;entryY=0.5;entryDx=0;entryDy=0;width=-1;" parent="1" source="48" target="45" edge="1">
                    <mxGeometry relative="1" as="geometry"/>
                </mxCell>
                <mxCell id="48" value="index.js" style="rounded=0;whiteSpace=wrap;html=1;" parent="1" vertex="1">
                    <mxGeometry x="201" y="541" width="60" height="20" as="geometry"/>
                </mxCell>
                <mxCell id="53" style="edgeStyle=none;shape=link;html=1;width=-2;" parent="1" source="52" edge="1">
                    <mxGeometry relative="1" as="geometry">
                        <mxPoint x="60" y="520" as="targetPoint"/>
                    </mxGeometry>
                </mxCell>
                <mxCell id="52" value="envConfig.js" style="rounded=0;whiteSpace=wrap;html=1;" parent="1" vertex="1">
                    <mxGeometry x="160" y="510" width="80" height="20" as="geometry"/>
                </mxCell>
                <mxCell id="57" style="edgeStyle=none;shape=link;html=1;width=0;" parent="1" source="56" edge="1">
                    <mxGeometry relative="1" as="geometry">
                        <mxPoint x="60" y="455" as="targetPoint"/>
                    </mxGeometry>
                </mxCell>
                <mxCell id="56" value="models/" style="swimlane;whiteSpace=wrap;html=1;" parent="1" vertex="1" collapsed="1">
                    <mxGeometry x="171" y="440" width="90" height="30" as="geometry">
                        <mxRectangle x="170" y="415" width="150" height="100" as="alternateBounds"/>
                    </mxGeometry>
                </mxCell>
                <mxCell id="55" value="user.js" style="shape=ext;double=1;rounded=0;whiteSpace=wrap;html=1;" parent="56" vertex="1">
                    <mxGeometry x="40" y="35" width="70" height="35" as="geometry"/>
                </mxCell>
                <mxCell id="59" style="edgeStyle=none;shape=link;html=1;exitX=0.75;exitY=0;exitDx=0;exitDy=0;entryX=0.25;entryY=0;entryDx=0;entryDy=0;" parent="56" source="55" target="55" edge="1">
                    <mxGeometry relative="1" as="geometry"/>
                </mxCell>
                <mxCell id="62" style="edgeStyle=none;shape=link;html=1;width=0;" parent="1" source="61" edge="1">
                    <mxGeometry relative="1" as="geometry">
                        <mxPoint x="60" y="382" as="targetPoint"/>
                        <Array as="points">
                            <mxPoint x="100" y="382"/>
                        </Array>
                    </mxGeometry>
                </mxCell>
                <mxCell id="61" value="routers/" style="swimlane;whiteSpace=wrap;html=1;" parent="1" vertex="1" collapsed="1">
                    <mxGeometry x="146" y="367" width="90" height="30" as="geometry">
                        <mxRectangle x="120.25" y="340" width="209.5" height="120" as="alternateBounds"/>
                    </mxGeometry>
                </mxCell>
                <mxCell id="26" value="usersRouters.js" style="rounded=0;whiteSpace=wrap;html=1;" parent="61" vertex="1">
                    <mxGeometry x="50.5" y="60" width="100" height="30" as="geometry"/>
                </mxCell>
                <mxCell id="71" style="edgeStyle=none;shape=link;html=1;entryX=0;entryY=0.25;entryDx=0;entryDy=0;" parent="61" source="63" target="61" edge="1">
                    <mxGeometry relative="1" as="geometry"/>
                </mxCell>
                <mxCell id="63" value="mainRouters.js" style="rounded=0;whiteSpace=wrap;html=1;" parent="61" vertex="1">
                    <mxGeometry x="39.75" y="30" width="99" height="20" as="geometry"/>
                </mxCell>
                <mxCell id="70" style="edgeStyle=none;shape=link;html=1;exitX=0.25;exitY=1;exitDx=0;exitDy=0;entryX=0.364;entryY=1.051;entryDx=0;entryDy=0;entryPerimeter=0;" parent="61" source="63" target="63" edge="1">
                    <mxGeometry relative="1" as="geometry"/>
                </mxCell>
                <mxCell id="68" style="edgeStyle=none;shape=link;html=1;width=-2;" parent="1" source="64" edge="1">
                    <mxGeometry relative="1" as="geometry">
                        <mxPoint x="60" y="270" as="targetPoint"/>
                    </mxGeometry>
                </mxCell>
                <mxCell id="64" value="controllers/" style="swimlane;whiteSpace=wrap;html=1;" parent="1" vertex="1">
                    <mxGeometry x="140" y="230" width="170" height="80" as="geometry"/>
                </mxCell>
                <mxCell id="69" style="edgeStyle=none;shape=link;html=1;width=1;" parent="1" source="66" edge="1">
                    <mxGeometry relative="1" as="geometry">
                        <mxPoint x="60" y="165" as="targetPoint"/>
                    </mxGeometry>
                </mxCell>
                <mxCell id="66" value="services/" style="swimlane;whiteSpace=wrap;html=1;" parent="1" vertex="1">
                    <mxGeometry x="125" y="140" width="200" height="50" as="geometry"/>
                </mxCell>
                <mxCell id="67" style="edgeStyle=none;shape=link;html=1;exitX=1;exitY=1;exitDx=0;exitDy=0;entryX=1;entryY=0.75;entryDx=0;entryDy=0;" parent="1" source="66" target="66" edge="1">
                    <mxGeometry relative="1" as="geometry"/>
                </mxCell>
                <mxCell id="82" style="edgeStyle=none;shape=link;html=1;" parent="1" source="76" edge="1">
                    <mxGeometry relative="1" as="geometry">
                        <mxPoint x="60" y="85" as="targetPoint"/>
                    </mxGeometry>
                </mxCell>
                <mxCell id="76" value="views/" style="swimlane;whiteSpace=wrap;html=1;" parent="1" vertex="1" collapsed="1">
                    <mxGeometry x="210" y="70" width="80" height="30" as="geometry">
                        <mxRectangle x="210" y="20" width="200" height="200" as="alternateBounds"/>
                    </mxGeometry>
                </mxCell>
                <mxCell id="86" style="edgeStyle=none;shape=link;html=1;" parent="1" source="78" edge="1">
                    <mxGeometry relative="1" as="geometry">
                        <mxPoint x="60" y="10" as="targetPoint"/>
                    </mxGeometry>
                </mxCell>
                <mxCell id="78" value="public" style="swimlane;whiteSpace=wrap;html=1;" parent="1" vertex="1">
                    <mxGeometry x="261" y="-30" width="200" height="80" as="geometry"/>
                </mxCell>
            </root>
        </mxGraphModel>
    </diagram>
</mxfile>